<svg width="77" height="15" xmlns="http://www.w3.org/2000/svg">
    <path fill="#fff" fill-opacity="0.7" d="M0,0L77,0L77,15L8,15s-8,0,-8,-8z"></path>
    <svg fill="#00aecd" stroke="none" x="62">
        <circle cx="6" cy="6" r="0.67"></circle>
        <path d="M4.2,11.3Q3.3,11.8,3.3,10.75L3.3,4.1Q3.3,3.1,4.3,3.5L10.4,7.0Q12.0,7.5,10.4,8.0L6.65,10.0L6.65,7.75a0.65,0.65,0,1,0,-1.3,0L5.35,10.75a0.9,0.9,0,0,0,1.3,0.8L12.7,8.2Q13.7,7.5,12.7,6.7L3.3,1.6Q2.2,1.3,1.8,2.5L1.8,12.5Q2.2,13.9,3.3,13.3L4.8,12.5A0.3,0.3,0,1,0,4.2,11.3Z"></path>
    </svg>
    <svg>
        <text x="6" y="11" font-family="Arial" font-size="11px" fill="black">AdChoices</text>
    </svg>
</svg>
